<svg width="133" height="26" viewBox="0 0 133 26" fill="none" xmlns="http://www.w3.org/2000/svg">
<path d="M38.326 20.252C39.817 20.252 40.888 19.685 41.665 18.824V20H45.613V13.469C45.613 11.873 45.256 10.697 44.395 9.857C43.492 8.954 42.106 8.471 40.069 8.471C38.116 8.471 36.751 8.828 35.47 9.353L36.289 12.167C37.297 11.768 38.221 11.537 39.418 11.537C40.951 11.537 41.686 12.209 41.686 13.385V13.574C41.035 13.343 40.006 13.133 38.956 13.133C36.289 13.133 34.504 14.351 34.504 16.703V16.745C34.504 19.013 36.163 20.252 38.326 20.252ZM39.754 17.753C38.935 17.753 38.347 17.291 38.347 16.514V16.472C38.347 15.632 39.019 15.065 40.174 15.065C40.762 15.065 41.329 15.191 41.728 15.359V15.884C41.728 17.018 40.909 17.753 39.754 17.753ZM52.1573 20.252C54.9293 20.252 56.7983 18.95 56.7983 16.451V16.409C56.7983 14.204 55.0133 13.427 52.7663 12.797C51.5693 12.44 50.9183 12.23 50.9183 11.789V11.747C50.9183 11.432 51.2333 11.201 51.8423 11.201C52.7453 11.201 54.0263 11.6 55.2023 12.251L56.5673 9.731C55.2653 8.891 53.5433 8.408 51.8843 8.408C49.2593 8.408 47.3273 9.752 47.3273 12.167V12.209C47.3273 14.498 49.1123 15.254 51.3593 15.842C52.5563 16.178 53.1863 16.367 53.1863 16.808V16.85C53.1863 17.249 52.8713 17.459 52.1783 17.459C51.0023 17.459 49.5743 17.018 48.2723 16.157L46.7813 18.572C48.3563 19.706 50.2463 20.252 52.1573 20.252ZM62.9444 20.252C65.7164 20.252 67.5854 18.95 67.5854 16.451V16.409C67.5854 14.204 65.8004 13.427 63.5534 12.797C62.3564 12.44 61.7054 12.23 61.7054 11.789V11.747C61.7054 11.432 62.0204 11.201 62.6294 11.201C63.5324 11.201 64.8134 11.6 65.9894 12.251L67.3544 9.731C66.0524 8.891 64.3304 8.408 62.6714 8.408C60.0464 8.408 58.1144 9.752 58.1144 12.167V12.209C58.1144 14.498 59.8994 15.254 62.1464 15.842C63.3434 16.178 63.9734 16.367 63.9734 16.808V16.85C63.9734 17.249 63.6584 17.459 62.9654 17.459C61.7894 17.459 60.3614 17.018 59.0594 16.157L57.5684 18.572C59.1434 19.706 61.0334 20.252 62.9444 20.252ZM69.2165 7.61H73.3745V4.67H69.2165V7.61ZM69.3005 20H73.2905V8.639H69.3005V20ZM81.0984 23.402C83.4714 23.402 85.0674 22.835 86.0964 21.806C87.1044 20.798 87.5664 19.349 87.5664 17.27V8.639H83.5764V9.983C82.7154 9.08 81.7074 8.387 80.0064 8.387C77.3814 8.387 75.0924 10.403 75.0924 13.679V13.721C75.0924 16.976 77.3394 18.992 80.1324 18.992C81.7914 18.992 82.8414 18.215 83.6394 17.291V17.732C83.6394 19.538 82.6524 20.525 80.6574 20.525C79.1244 20.525 77.9064 20.126 76.6884 19.454L75.4074 22.1C77.0454 22.94 78.8934 23.402 81.0984 23.402ZM81.3294 15.926C79.9644 15.926 78.9984 15.002 78.9984 13.742V13.7C78.9984 12.44 79.9644 11.495 81.3294 11.495C82.6734 11.495 83.6394 12.419 83.6394 13.679V13.721C83.6394 14.981 82.6734 15.926 81.3294 15.926ZM89.7038 20H93.6938V13.847C93.6938 12.608 94.4078 11.936 95.3738 11.936C96.3188 11.936 96.9698 12.608 96.9698 13.847V20H100.96V12.566C100.96 9.983 99.5108 8.387 97.0958 8.387C95.4788 8.387 94.4288 9.29 93.6938 10.235V8.639H89.7038V20ZM103.244 20H115.172V16.535H107.276V14.204H114.332V10.991H107.276V8.765H115.067V5.3H103.244V20ZM117.251 20H122.837C128.129 20 131.216 16.85 131.216 12.608V12.566C131.216 8.324 128.171 5.3 122.921 5.3H117.251V20ZM121.325 16.388V8.912H122.984C125.42 8.912 127.037 10.277 127.037 12.629V12.671C127.037 15.044 125.42 16.388 122.984 16.388H121.325Z" fill="#713489"/>
<path d="M15.0194 4.19103L13.8813 5.33183L12.7378 4.18825C11.5567 3.00569 10.0127 2.25401 8.35344 2.05375C6.69415 1.8535 5.01567 2.21627 3.58719 3.08389C2.1587 3.95151 1.06296 5.27372 0.475683 6.83847C-0.111591 8.40322 -0.156375 10.1199 0.348515 11.7131H5.20595L7.17668 7.55237C7.37017 7.14375 7.67387 6.79724 8.0536 6.55186C8.43333 6.30648 8.87402 6.17196 9.32605 6.16345C9.77809 6.15494 10.2235 6.27278 10.6122 6.50369C11.0009 6.73461 11.3174 7.06944 11.5262 7.47049L14.2741 12.754L16.4627 9.89088C16.6812 9.60522 16.9605 9.37167 17.2803 9.20708C17.6001 9.0425 17.9524 8.95099 18.3119 8.93917C18.6714 8.92735 19.029 8.99552 19.3589 9.13874C19.6888 9.28197 19.9828 9.49668 20.2196 9.76736L21.9225 11.7131H27.4183C27.9192 10.1195 27.8711 8.40389 27.2819 6.84077C26.6926 5.27764 25.5962 3.95727 24.168 3.09081C22.7398 2.22435 21.0623 1.86186 19.4037 2.06132C17.7452 2.26077 16.2014 3.01065 15.0194 4.19103Z" fill="#713489"/>
<path d="M13.1457 25.6957L4.01929 16.5707H6.74361C7.20372 16.5707 7.65435 16.4399 8.04305 16.1938C8.43175 15.9476 8.74252 15.596 8.93918 15.1801L9.4735 14.0518L11.7273 18.3846C11.916 18.7471 12.193 19.0562 12.5328 19.2831C12.8726 19.5101 13.2642 19.6477 13.6713 19.6831C14.0784 19.7186 14.4879 19.6507 14.8618 19.4858C15.2357 19.3209 15.562 19.0644 15.8104 18.7399L18.518 15.1981L18.9927 15.7394C19.4534 16.2667 20.121 16.5693 20.8205 16.5693H23.7488L14.6168 25.6957C14.4217 25.8907 14.1571 26.0001 13.8813 26.0001C13.6054 26.0001 13.3409 25.8907 13.1457 25.6957Z" fill="#713489"/>
<path d="M10.3007 8.12435C10.2132 7.95004 10.0786 7.80381 9.91202 7.70233C9.74549 7.60085 9.5538 7.54819 9.35879 7.55036C9.16378 7.55253 8.97331 7.60944 8.80907 7.7146C8.64484 7.81977 8.51345 7.96896 8.42989 8.14516L6.08444 13.0997H1.04381C0.767751 13.0997 0.502999 13.2094 0.307796 13.4046C0.112593 13.5998 0.00292969 13.8646 0.00292969 14.1406C0.00292969 14.4167 0.112593 14.6814 0.307796 14.8766C0.502999 15.0718 0.767751 15.1815 1.04381 15.1815H6.74366C6.94079 15.1816 7.13387 15.1256 7.30045 15.0202C7.46703 14.9148 7.60025 14.7643 7.68462 14.5861L9.39721 10.9694L12.9501 18.0752C13.03 18.2354 13.1498 18.3724 13.2981 18.4728C13.4464 18.5732 13.6181 18.6336 13.7965 18.6483C13.975 18.663 14.1542 18.6313 14.3169 18.5564C14.4796 18.4816 14.6202 18.366 14.7251 18.2209L18.4695 13.0359L20.0378 14.8262C20.1353 14.938 20.2556 15.0277 20.3906 15.0892C20.5256 15.1507 20.6722 15.1827 20.8205 15.1829H26.7188C26.9949 15.1829 27.2596 15.0732 27.4548 14.878C27.65 14.6828 27.7597 14.4181 27.7597 14.142C27.7597 13.866 27.65 13.6012 27.4548 13.406C27.2596 13.2108 26.9949 13.1011 26.7188 13.1011H21.2924L19.1745 10.6821C19.0715 10.5644 18.9433 10.4713 18.7993 10.41C18.6554 10.3486 18.4995 10.3205 18.3432 10.3277C18.1869 10.3349 18.0342 10.3772 17.8966 10.4516C17.7589 10.5259 17.6397 10.6303 17.548 10.7571L14.0437 15.609L10.3021 8.12573L10.3007 8.12435Z" fill="#713489"/>
</svg>
